<svg xmlns="http://www.w3.org/2000/svg" viewBox="0 0 760 560" role="img" aria-label="Healthcare practice growth dashboard">
<defs><linearGradient id="g" x1="0" y1="0" x2="1" y2="1"><stop stop-color="#fff8ef"/><stop offset="1" stop-color="#f7d8ca"/></linearGradient><filter id="s"><feDropShadow dx="0" dy="18" stdDeviation="18" flood-color="#3a291f" flood-opacity=".16"/></filter></defs>
<rect width="760" height="560" rx="36" fill="url(#g)"/>
<g filter="url(#s)" transform="translate(105 55)"><rect width="550" height="430" rx="14" fill="#fff"/><text x="30" y="42" font-size="17" font-weight="700" fill="#073f46" font-family="Arial">Website performance</text><circle cx="500" cy="35" r="6" fill="#54ba8e"/><text x="513" y="40" font-size="11" fill="#6c8584" font-family="Arial">Live scan</text>
<g transform="translate(52 92)"><circle cx="105" cy="105" r="78" fill="none" stroke="#deefeb" stroke-width="18"/><path d="M105 27a78 78 0 1 1-71 45" fill="none" stroke="#064b50" stroke-width="18" stroke-linecap="round"/><text x="78" y="112" font-size="38" font-weight="700" fill="#073f46" font-family="Arial">92</text><text x="87" y="134" font-size="12" fill="#6f8685" font-family="Arial">score</text></g>
<g transform="translate(285 105)" font-family="Arial"><text x="0" y="0" font-size="11" fill="#647e7d">Mobile experience</text><rect y="14" width="210" height="10" rx="5" fill="#e8efed"/><rect y="14" width="195" height="10" rx="5" fill="#064b50"/><text x="0" y="64" font-size="11" fill="#647e7d">Search readiness</text><rect y="78" width="210" height="10" rx="5" fill="#e8efed"/><rect y="78" width="180" height="10" rx="5" fill="#ff7758"/><text x="0" y="128" font-size="11" fill="#647e7d">Conversion path</text><rect y="142" width="210" height="10" rx="5" fill="#e8efed"/><rect y="142" width="188" height="10" rx="5" fill="#064b50"/></g>
<rect x="40" y="340" width="470" height="60" rx="8" fill="#eef7f4"/><circle cx="70" cy="370" r="15" fill="#cce9e2"/><path d="M63 370l5 5 10-13" fill="none" stroke="#064b50" stroke-width="3"/><text x="98" y="366" font-size="14" font-weight="700" fill="#073f46" font-family="Arial">Strong foundation</text><text x="98" y="384" font-size="10" fill="#6d8584" font-family="Arial">Performance, SEO and booking flow are aligned.</text></g>
</svg>